<svg preserveAspectRatio="none" overflow="visible" style="display: block;" width="10.476" height="14.976" viewBox="0 0 10.476 14.976" fill="none" xmlns="http://www.w3.org/2000/svg">
<path id="location_on - material" fill-rule="evenodd" clip-rule="evenodd" d="M5.238 7.092C5.574 7.092 5.886 7.008 6.174 6.84C6.462 6.672 6.69 6.447 6.858 6.165C7.026 5.883 7.11 5.574 7.11 5.238C7.11 4.902 7.026 4.59 6.858 4.302C6.69 4.014 6.462 3.786 6.174 3.618C5.886 3.45 5.574 3.366 5.238 3.366C4.902 3.366 4.593 3.45 4.311 3.618C4.029 3.786 3.804 4.014 3.636 4.302C3.468 4.59 3.384 4.902 3.384 5.238C3.384 5.754 3.564 6.192 3.924 6.552C4.284 6.912 4.722 7.092 5.238 7.092ZM5.238 0C6.198 0 7.08 0.233998 7.884 0.702C8.676 1.17 9.306 1.8 9.774 2.592C10.242 3.396 10.476 4.278 10.476 5.238C10.476 5.97 10.296 6.81 9.936 7.758C9.624 8.562 9.192 9.432 8.64 10.368C8.184 11.112 7.662 11.886 7.074 12.69C6.666 13.254 6.234 13.806 5.778 14.346L5.238 14.976L4.698 14.346C4.242 13.806 3.81 13.254 3.402 12.69C2.814 11.886 2.292 11.112 1.836 10.368C1.284 9.432 0.852002 8.562 0.54 7.758C0.179998 6.81 0 5.97 0 5.238C0 4.278 0.233998 3.396 0.702 2.592C1.17 1.8 1.8 1.17 2.592 0.702C3.396 0.233998 4.278 0 5.238 0Z" fill="white"/>
</svg>
